<svg id="Шар_1" data-name="Шар 1" xmlns="http://www.w3.org/2000/svg" xmlns:xlink="http://www.w3.org/1999/xlink" viewBox="0 0 26 24"><defs><style>.cls-1{fill:url(#Градієнт_без_назви_9);}.cls-2{fill:url(#Градієнт_без_назви_9-2);}</style><linearGradient id="Градієнт_без_назви_9" x1="4.77" y1="12.77" x2="21.23" y2="29.23" gradientUnits="userSpaceOnUse"><stop offset="0" stop-color="#3fc6d9"/><stop offset="1" stop-color="#76ecfa"/></linearGradient><linearGradient id="Градієнт_без_назви_9-2" x1="8.51" y1="4.04" x2="17.44" y2="12.96" xlink:href="#Градієнт_без_назви_9"/></defs><path class="cls-1" d="M25,17H23a.94.94,0,0,0-1,1v2.5a.47.47,0,0,1-.5.5H4.5a.47.47,0,0,1-.5-.5V18a.94.94,0,0,0-1-1H1a.94.94,0,0,0-1,1v6a.94.94,0,0,0,1,1H25a.94.94,0,0,0,1-1V18A.94.94,0,0,0,25,17Z" transform="translate(0 -1)"/><path class="cls-2" d="M12.3,16.7a1,1,0,0,0,1.4,0l6-6a1,1,0,0,0,0-1.4L18.3,7.9a1,1,0,0,0-1.4,0l-1,1a.54.54,0,0,1-.9-.4V2a.94.94,0,0,0-1-1H12a.94.94,0,0,0-1,1V8.6a.55.55,0,0,1-.9.4l-1-1A1,1,0,0,0,7.7,8L6.3,9.4a1,1,0,0,0,0,1.4Z" transform="translate(0 -1)"/></svg>